<mxfile host="app.diagrams.net" modified="2020-11-20T07:36:28.597Z" agent="5.0 (Windows NT 10.0; Win64; x64) AppleWebKit/537.36 (KHTML, like Gecko) Chrome/84.0.4147.105 Safari/537.36" etag="pw5vZlh4rIl6RNgcEiwj" version="13.9.9" type="github">
  <diagram id="DybgV2dMm-oK95CopPqm" name="Page-1">
    <mxGraphModel dx="971" dy="1596" grid="0" gridSize="10" guides="1" tooltips="1" connect="1" arrows="1" fold="1" page="1" pageScale="1" pageWidth="827" pageHeight="1169" math="0" shadow="0">
      <root>
        <mxCell id="0" />
        <mxCell id="1" parent="0" />
        <mxCell id="xwB1ckmhTEfTMpIk9fc6-267" value="" style="rounded=0;whiteSpace=wrap;html=1;strokeColor=#000000;fillColor=none;" parent="1" vertex="1">
          <mxGeometry x="114" y="129" width="536" height="409" as="geometry" />
        </mxCell>
        <mxCell id="T4yJkQ8KHL0_IrTnyPtb-2" value="" style="rounded=0;whiteSpace=wrap;html=1;verticalAlign=top;strokeColor=#CCCCCC;" parent="1" vertex="1">
          <mxGeometry x="121" y="367" width="520" height="132" as="geometry" />
        </mxCell>
        <mxCell id="T4yJkQ8KHL0_IrTnyPtb-3" value="网页支付" style="text;html=1;strokeColor=none;fillColor=none;align=center;verticalAlign=middle;whiteSpace=wrap;rounded=0;" parent="1" vertex="1">
          <mxGeometry x="133" y="378" width="69" height="19" as="geometry" />
        </mxCell>
        <mxCell id="xwB1ckmhTEfTMpIk9fc6-2" value="扫码支付" style="text;html=1;strokeColor=none;fillColor=none;align=center;verticalAlign=middle;whiteSpace=wrap;rounded=0;" parent="1" vertex="1">
          <mxGeometry x="279" y="378" width="69" height="19" as="geometry" />
        </mxCell>
        <mxCell id="xwB1ckmhTEfTMpIk9fc6-3" value="小程序支付" style="text;html=1;strokeColor=none;fillColor=none;align=center;verticalAlign=middle;whiteSpace=wrap;rounded=0;" parent="1" vertex="1">
          <mxGeometry x="425" y="378" width="69" height="19" as="geometry" />
        </mxCell>
        <mxCell id="xwB1ckmhTEfTMpIk9fc6-6" value="wap收银台" style="text;html=1;strokeColor=none;fillColor=none;align=center;verticalAlign=middle;whiteSpace=wrap;rounded=0;" parent="1" vertex="1">
          <mxGeometry x="279" y="442" width="69" height="19" as="geometry" />
        </mxCell>
        <mxCell id="xwB1ckmhTEfTMpIk9fc6-7" value="支付渠道管理" style="text;html=1;strokeColor=none;fillColor=none;align=center;verticalAlign=middle;whiteSpace=wrap;rounded=0;" parent="1" vertex="1">
          <mxGeometry x="420" y="442" width="79" height="23" as="geometry" />
        </mxCell>
        <mxCell id="xwB1ckmhTEfTMpIk9fc6-8" value="对账系统" style="text;html=1;strokeColor=none;fillColor=none;align=center;verticalAlign=middle;whiteSpace=wrap;rounded=0;" parent="1" vertex="1">
          <mxGeometry x="559.5" y="472" width="79" height="19" as="geometry" />
        </mxCell>
        <mxCell id="xwB1ckmhTEfTMpIk9fc6-9" value="交易补发服务" style="text;html=1;strokeColor=none;fillColor=none;align=center;verticalAlign=middle;whiteSpace=wrap;rounded=0;" parent="1" vertex="1">
          <mxGeometry x="562" y="410" width="79" height="19" as="geometry" />
        </mxCell>
        <mxCell id="xwB1ckmhTEfTMpIk9fc6-10" value="商户管理" style="text;html=1;strokeColor=none;fillColor=none;align=center;verticalAlign=middle;whiteSpace=wrap;rounded=0;" parent="1" vertex="1">
          <mxGeometry x="131.5" y="474" width="79" height="19" as="geometry" />
        </mxCell>
        <mxCell id="xwB1ckmhTEfTMpIk9fc6-44" value="退款" style="text;html=1;strokeColor=none;fillColor=none;align=center;verticalAlign=middle;whiteSpace=wrap;rounded=0;" parent="1" vertex="1">
          <mxGeometry x="274" y="410" width="79" height="19" as="geometry" />
        </mxCell>
        <mxCell id="xwB1ckmhTEfTMpIk9fc6-97" style="edgeStyle=orthogonalEdgeStyle;rounded=0;orthogonalLoop=1;jettySize=auto;html=1;exitX=0.5;exitY=1;exitDx=0;exitDy=0;" parent="1" source="xwB1ckmhTEfTMpIk9fc6-2" target="xwB1ckmhTEfTMpIk9fc6-2" edge="1">
          <mxGeometry relative="1" as="geometry" />
        </mxCell>
        <mxCell id="xwB1ckmhTEfTMpIk9fc6-98" value="支付路由管理" style="text;html=1;strokeColor=none;fillColor=none;align=center;verticalAlign=middle;whiteSpace=wrap;rounded=0;" parent="1" vertex="1">
          <mxGeometry x="559.5" y="442" width="79" height="19" as="geometry" />
        </mxCell>
        <mxCell id="xwB1ckmhTEfTMpIk9fc6-111" value="交易查询" style="text;html=1;strokeColor=none;fillColor=none;align=center;verticalAlign=middle;whiteSpace=wrap;rounded=0;" parent="1" vertex="1">
          <mxGeometry x="128" y="410" width="79" height="19" as="geometry" />
        </mxCell>
        <mxCell id="xwB1ckmhTEfTMpIk9fc6-128" value="" style="rounded=0;whiteSpace=wrap;html=1;verticalAlign=top;strokeColor=#CCCCCC;" parent="1" vertex="1">
          <mxGeometry x="478" y="240" width="163" height="93" as="geometry" />
        </mxCell>
        <mxCell id="xwB1ckmhTEfTMpIk9fc6-129" value="在线开票" style="text;html=1;strokeColor=none;fillColor=none;align=center;verticalAlign=middle;whiteSpace=wrap;rounded=0;" parent="1" vertex="1">
          <mxGeometry x="572" y="288" width="69" height="19" as="geometry" />
        </mxCell>
        <mxCell id="xwB1ckmhTEfTMpIk9fc6-133" value="项目管理" style="text;html=1;strokeColor=none;fillColor=none;align=center;verticalAlign=middle;whiteSpace=wrap;rounded=0;" parent="1" vertex="1">
          <mxGeometry x="477.5" y="288" width="69" height="19" as="geometry" />
        </mxCell>
        <mxCell id="xwB1ckmhTEfTMpIk9fc6-135" value="缴费退款" style="text;html=1;strokeColor=none;fillColor=none;align=center;verticalAlign=middle;whiteSpace=wrap;rounded=0;" parent="1" vertex="1">
          <mxGeometry x="477.5" y="266" width="69" height="19" as="geometry" />
        </mxCell>
        <mxCell id="xwB1ckmhTEfTMpIk9fc6-137" value="名单缴费" style="text;html=1;strokeColor=none;fillColor=none;align=center;verticalAlign=middle;whiteSpace=wrap;rounded=0;" parent="1" vertex="1">
          <mxGeometry x="479" y="244" width="69" height="19" as="geometry" />
        </mxCell>
        <mxCell id="xwB1ckmhTEfTMpIk9fc6-140" value="票据打印" style="text;html=1;strokeColor=none;fillColor=none;align=center;verticalAlign=middle;whiteSpace=wrap;rounded=0;" parent="1" vertex="1">
          <mxGeometry x="477.5" y="312" width="69" height="19" as="geometry" />
        </mxCell>
        <mxCell id="xwB1ckmhTEfTMpIk9fc6-141" style="edgeStyle=orthogonalEdgeStyle;rounded=0;orthogonalLoop=1;jettySize=auto;html=1;exitX=0.5;exitY=1;exitDx=0;exitDy=0;" parent="1" edge="1">
          <mxGeometry relative="1" as="geometry">
            <mxPoint x="947.5" y="-164" as="sourcePoint" />
            <mxPoint x="947.5" y="-164" as="targetPoint" />
          </mxGeometry>
        </mxCell>
        <mxCell id="xwB1ckmhTEfTMpIk9fc6-142" value="缴费报表" style="text;html=1;strokeColor=none;fillColor=none;align=center;verticalAlign=middle;whiteSpace=wrap;rounded=0;" parent="1" vertex="1">
          <mxGeometry x="572" y="266" width="69" height="19" as="geometry" />
        </mxCell>
        <mxCell id="xwB1ckmhTEfTMpIk9fc6-161" value="数据报表管理" style="text;html=1;strokeColor=none;fillColor=none;align=center;verticalAlign=middle;whiteSpace=wrap;rounded=0;" parent="1" vertex="1">
          <mxGeometry x="274" y="474" width="79" height="19" as="geometry" />
        </mxCell>
        <mxCell id="xwB1ckmhTEfTMpIk9fc6-167" value="支付参数管理" style="text;html=1;strokeColor=none;fillColor=none;align=center;verticalAlign=middle;whiteSpace=wrap;rounded=0;" parent="1" vertex="1">
          <mxGeometry x="128" y="442" width="79" height="19" as="geometry" />
        </mxCell>
        <mxCell id="xwB1ckmhTEfTMpIk9fc6-178" value="综合缴费系统" style="rounded=0;whiteSpace=wrap;html=1;fontStyle=1;fillColor=none;strokeColor=#CCCCCC;" parent="1" vertex="1">
          <mxGeometry x="478" y="214" width="163" height="26" as="geometry" />
        </mxCell>
        <mxCell id="xwB1ckmhTEfTMpIk9fc6-181" value="报名缴费" style="text;html=1;strokeColor=none;fillColor=none;align=center;verticalAlign=middle;whiteSpace=wrap;rounded=0;" parent="1" vertex="1">
          <mxGeometry x="572" y="244" width="69" height="19" as="geometry" />
        </mxCell>
        <mxCell id="xwB1ckmhTEfTMpIk9fc6-188" value="" style="rounded=0;whiteSpace=wrap;html=1;verticalAlign=top;strokeColor=#CCCCCC;" parent="1" vertex="1">
          <mxGeometry x="299.5" y="240" width="163" height="93" as="geometry" />
        </mxCell>
        <mxCell id="xwB1ckmhTEfTMpIk9fc6-191" value="三方码核身" style="text;html=1;strokeColor=none;fillColor=none;align=center;verticalAlign=middle;whiteSpace=wrap;rounded=0;" parent="1" vertex="1">
          <mxGeometry x="346.5" y="289" width="69" height="19" as="geometry" />
        </mxCell>
        <mxCell id="xwB1ckmhTEfTMpIk9fc6-192" value="二维码分类" style="text;html=1;strokeColor=none;fillColor=none;align=center;verticalAlign=middle;whiteSpace=wrap;rounded=0;" parent="1" vertex="1">
          <mxGeometry x="344.5" y="244" width="69" height="19" as="geometry" />
        </mxCell>
        <mxCell id="xwB1ckmhTEfTMpIk9fc6-194" value="交易结果通知" style="text;html=1;strokeColor=none;fillColor=none;align=center;verticalAlign=middle;whiteSpace=wrap;rounded=0;" parent="1" vertex="1">
          <mxGeometry x="341" y="312" width="80" height="19" as="geometry" />
        </mxCell>
        <mxCell id="xwB1ckmhTEfTMpIk9fc6-195" value="扫码付系统" style="rounded=0;whiteSpace=wrap;html=1;fontStyle=1;fillColor=none;strokeColor=#CCCCCC;" parent="1" vertex="1">
          <mxGeometry x="299.5" y="214" width="163" height="26" as="geometry" />
        </mxCell>
        <mxCell id="xwB1ckmhTEfTMpIk9fc6-196" value="虚拟卡认证" style="text;html=1;strokeColor=none;fillColor=none;align=center;verticalAlign=middle;whiteSpace=wrap;rounded=0;" parent="1" vertex="1">
          <mxGeometry x="344.5" y="266" width="69" height="19" as="geometry" />
        </mxCell>
        <mxCell id="xwB1ckmhTEfTMpIk9fc6-200" value="" style="rounded=0;whiteSpace=wrap;html=1;verticalAlign=top;strokeColor=#CCCCCC;" parent="1" vertex="1">
          <mxGeometry x="121" y="240" width="163" height="93" as="geometry" />
        </mxCell>
        <mxCell id="xwB1ckmhTEfTMpIk9fc6-201" value="身份认证" style="text;html=1;strokeColor=none;fillColor=none;align=center;verticalAlign=middle;whiteSpace=wrap;rounded=0;" parent="1" vertex="1">
          <mxGeometry x="168" y="289" width="69" height="19" as="geometry" />
        </mxCell>
        <mxCell id="xwB1ckmhTEfTMpIk9fc6-202" value="设备管理" style="text;html=1;strokeColor=none;fillColor=none;align=center;verticalAlign=middle;whiteSpace=wrap;rounded=0;" parent="1" vertex="1">
          <mxGeometry x="166" y="244" width="69" height="19" as="geometry" />
        </mxCell>
        <mxCell id="xwB1ckmhTEfTMpIk9fc6-203" value="交易数据上传" style="text;html=1;strokeColor=none;fillColor=none;align=center;verticalAlign=middle;whiteSpace=wrap;rounded=0;" parent="1" vertex="1">
          <mxGeometry x="162.5" y="312" width="80" height="19" as="geometry" />
        </mxCell>
        <mxCell id="xwB1ckmhTEfTMpIk9fc6-204" value="联机交易系统" style="rounded=0;whiteSpace=wrap;html=1;fontStyle=1;fillColor=none;strokeColor=#CCCCCC;" parent="1" vertex="1">
          <mxGeometry x="121" y="214" width="163" height="26" as="geometry" />
        </mxCell>
        <mxCell id="xwB1ckmhTEfTMpIk9fc6-205" value="黑名单下发" style="text;html=1;strokeColor=none;fillColor=none;align=center;verticalAlign=middle;whiteSpace=wrap;rounded=0;" parent="1" vertex="1">
          <mxGeometry x="166" y="266" width="69" height="19" as="geometry" />
        </mxCell>
        <mxCell id="xwB1ckmhTEfTMpIk9fc6-220" value="金融聚合交易支付系统" style="rounded=0;whiteSpace=wrap;html=1;fontStyle=1;fillColor=none;strokeColor=#CCCCCC;" parent="1" vertex="1">
          <mxGeometry x="121" y="341" width="520" height="26" as="geometry" />
        </mxCell>
        <mxCell id="xwB1ckmhTEfTMpIk9fc6-221" value="签约代扣支付" style="text;html=1;strokeColor=none;fillColor=none;align=center;verticalAlign=middle;whiteSpace=wrap;rounded=0;" parent="1" vertex="1">
          <mxGeometry x="561" y="378" width="77.5" height="19" as="geometry" />
        </mxCell>
        <mxCell id="xwB1ckmhTEfTMpIk9fc6-227" style="edgeStyle=orthogonalEdgeStyle;rounded=0;orthogonalLoop=1;jettySize=auto;html=1;exitX=0.5;exitY=1;exitDx=0;exitDy=0;" parent="1" edge="1">
          <mxGeometry relative="1" as="geometry">
            <mxPoint x="167.5" y="429" as="sourcePoint" />
            <mxPoint x="167.5" y="429" as="targetPoint" />
          </mxGeometry>
        </mxCell>
        <mxCell id="xwB1ckmhTEfTMpIk9fc6-232" value="银联综合支付平台" style="rounded=0;whiteSpace=wrap;html=1;fontStyle=1;strokeColor=#CCCCCC;fillColor=none;" parent="1" vertex="1">
          <mxGeometry x="121" y="507" width="163" height="26" as="geometry" />
        </mxCell>
        <mxCell id="xwB1ckmhTEfTMpIk9fc6-238" value="其他三方支付系统" style="rounded=0;whiteSpace=wrap;html=1;fontStyle=1;strokeColor=#CCCCCC;fillColor=none;" parent="1" vertex="1">
          <mxGeometry x="299.5" y="507" width="163" height="26" as="geometry" />
        </mxCell>
        <mxCell id="xwB1ckmhTEfTMpIk9fc6-244" value="银联清结算平台" style="rounded=0;whiteSpace=wrap;html=1;fontStyle=1;strokeColor=#CCCCCC;fillColor=none;" parent="1" vertex="1">
          <mxGeometry x="478" y="507" width="163" height="26" as="geometry" />
        </mxCell>
        <mxCell id="xwB1ckmhTEfTMpIk9fc6-246" value="" style="rounded=0;whiteSpace=wrap;html=1;verticalAlign=top;strokeColor=#CCCCCC;" parent="1" vertex="1">
          <mxGeometry x="121" y="162" width="253" height="45" as="geometry" />
        </mxCell>
        <mxCell id="xwB1ckmhTEfTMpIk9fc6-247" value="" style="rounded=0;whiteSpace=wrap;html=1;verticalAlign=top;strokeColor=#CCCCCC;" parent="1" vertex="1">
          <mxGeometry x="389" y="161" width="252" height="47" as="geometry" />
        </mxCell>
        <mxCell id="xwB1ckmhTEfTMpIk9fc6-249" value="认证授权" style="text;html=1;strokeColor=none;fillColor=none;align=center;verticalAlign=middle;whiteSpace=wrap;rounded=0;" parent="1" vertex="1">
          <mxGeometry x="128" y="175" width="69" height="19" as="geometry" />
        </mxCell>
        <mxCell id="xwB1ckmhTEfTMpIk9fc6-250" value="应用管理" style="text;html=1;fillColor=none;align=center;verticalAlign=middle;whiteSpace=wrap;rounded=0;" parent="1" vertex="1">
          <mxGeometry x="215" y="175" width="69" height="19" as="geometry" />
        </mxCell>
        <mxCell id="xwB1ckmhTEfTMpIk9fc6-251" value="接口管理" style="text;html=1;strokeColor=none;fillColor=none;align=center;verticalAlign=middle;whiteSpace=wrap;rounded=0;" parent="1" vertex="1">
          <mxGeometry x="305" y="175" width="69" height="19" as="geometry" />
        </mxCell>
        <mxCell id="xwB1ckmhTEfTMpIk9fc6-252" value="商户报表" style="text;html=1;strokeColor=none;fillColor=none;align=center;verticalAlign=middle;whiteSpace=wrap;rounded=0;" parent="1" vertex="1">
          <mxGeometry x="572" y="186" width="69" height="19" as="geometry" />
        </mxCell>
        <mxCell id="xwB1ckmhTEfTMpIk9fc6-253" value="个人中心" style="text;html=1;strokeColor=none;fillColor=none;align=center;verticalAlign=middle;whiteSpace=wrap;rounded=0;" parent="1" vertex="1">
          <mxGeometry x="572" y="164" width="69" height="19" as="geometry" />
        </mxCell>
        <mxCell id="xwB1ckmhTEfTMpIk9fc6-254" value="系统管理" style="text;html=1;strokeColor=none;fillColor=none;align=center;verticalAlign=middle;whiteSpace=wrap;rounded=0;" parent="1" vertex="1">
          <mxGeometry x="480.5" y="186" width="69" height="19" as="geometry" />
        </mxCell>
        <mxCell id="xwB1ckmhTEfTMpIk9fc6-255" value="运营管理" style="text;html=1;strokeColor=none;fillColor=none;align=center;verticalAlign=middle;whiteSpace=wrap;rounded=0;" parent="1" vertex="1">
          <mxGeometry x="389" y="186" width="69" height="19" as="geometry" />
        </mxCell>
        <mxCell id="xwB1ckmhTEfTMpIk9fc6-256" value="交易流水" style="text;html=1;strokeColor=none;fillColor=none;align=center;verticalAlign=middle;whiteSpace=wrap;rounded=0;" parent="1" vertex="1">
          <mxGeometry x="480.5" y="164" width="69" height="19" as="geometry" />
        </mxCell>
        <mxCell id="xwB1ckmhTEfTMpIk9fc6-258" value="账单管理" style="text;html=1;strokeColor=none;fillColor=none;align=center;verticalAlign=middle;whiteSpace=wrap;rounded=0;" parent="1" vertex="1">
          <mxGeometry x="389" y="164" width="69" height="19" as="geometry" />
        </mxCell>
        <mxCell id="xwB1ckmhTEfTMpIk9fc6-259" value="开放平台" style="rounded=0;whiteSpace=wrap;html=1;fontStyle=1;fillColor=none;strokeColor=#CCCCCC;" parent="1" vertex="1">
          <mxGeometry x="121" y="135" width="253" height="26" as="geometry" />
        </mxCell>
        <mxCell id="xwB1ckmhTEfTMpIk9fc6-260" value="移动服务平台" style="rounded=0;whiteSpace=wrap;html=1;fontStyle=1;fillColor=none;strokeColor=#CCCCCC;" parent="1" vertex="1">
          <mxGeometry x="389" y="135" width="252" height="26" as="geometry" />
        </mxCell>
        <mxCell id="xwB1ckmhTEfTMpIk9fc6-265" value="补账服务" style="text;html=1;strokeColor=none;fillColor=none;align=center;verticalAlign=middle;whiteSpace=wrap;rounded=0;" parent="1" vertex="1">
          <mxGeometry x="420" y="410" width="79" height="19" as="geometry" />
        </mxCell>
        <mxCell id="xwB1ckmhTEfTMpIk9fc6-266" value="异步通知系统" style="text;html=1;strokeColor=none;fillColor=none;align=center;verticalAlign=middle;whiteSpace=wrap;rounded=0;" parent="1" vertex="1">
          <mxGeometry x="420" y="472" width="79" height="19" as="geometry" />
        </mxCell>
        <mxCell id="zKL8gyBiCPiRNHRH7Rql-1" value=":Object" style="shape=umlLifeline;perimeter=lifelinePerimeter;whiteSpace=wrap;html=1;container=1;collapsible=0;recursiveResize=0;outlineConnect=0;" vertex="1" parent="1">
          <mxGeometry x="215" y="-852" width="100" height="300" as="geometry" />
        </mxCell>
      </root>
    </mxGraphModel>
  </diagram>
</mxfile>
